# xmcd
#
# Track frame offsets:
#	180
#	12037
#	24302
#	37385
#	49667
#	67155
#	77505
#	93680
#	111705
#	122525
#
# Disc length: 1811 seconds
#
# Revision: 1
# Processed by: cddbd v1.4b41PL3 Copyright (c) Steve Scherf et al.
# Submitted via: audiograbber 1.80
#
DISCID=8507110a
DTITLE=John Lee Hooker - Blues Before Sunrise
DYEAR=1900
DGENRE=
TTITLE0=Little Wheel
TTITLE1=I'm In The Mood
TTITLE2=Hobo Blues
TTITLE3=Crawling King Snake
TTITLE4=Blues Before Sunrise
TTITLE5=Want Ad
TTITLE6=My First Wife Left Me
TTITLE7=Wednesday Evening Blues
TTITLE8=Maudie
TTITLE9=Time Is Marching
EXTD=
EXTT0=
EXTT1=
EXTT2=
EXTT3=
EXTT4=
EXTT5=
EXTT6=
EXTT7=
EXTT8=
EXTT9=
PLAYORDER=
